<?xml version="1.0" encoding="UTF-8"?>
<svg id="_레이어_1" data-name="레이어 1" xmlns="http://www.w3.org/2000/svg" viewBox="0 0 566.93 566.93">
  <defs>
    <style>
      .cls-1 {
        fill: #fff;
        stroke: #fff;
        stroke-miterlimit: 10;
        stroke-width: 6px;
      }
    </style>
  </defs>
  <path class="cls-1" d="M346.31,472.87c-13.4,68.69-112.37,68.66-125.75,0h-111.66c-37.32-1.54-62.46-50.7-32.67-77.75,5.47-4.96,13.53-8.35,18.69-13.58,25.48-25.84,16.16-92.27,17.8-126.56,3.07-64.15,42.6-122.49,101.11-148.54,3.51-1.56,22.05-7.64,22.93-8.49,1.13-1.11.92-16.64,1.92-21,11.21-48.94,85.08-44.16,90.52,4.93.38,3.41-.78,14.42.91,16.07.87.86,19.42,6.93,22.93,8.49,58.51,26.04,97.81,84.5,101.11,148.54,1.77,34.27-7.65,98.84,16.52,125.3,6.46,7.08,16.66,10.83,23.33,18.28,24.81,27.69-1.06,73.23-36.03,74.31h-111.66ZM304.66,93.25c3.77-34.86-46.26-34.96-42.44,0,13.96-2.41,28.47-2.41,42.44,0ZM276.47,116.43c-75.98,4.26-135.21,64.36-139.12,140.25-2.31,44.79,10.3,112.75-28.44,145.64-6.39,5.42-19.44,10.49-20.7,19.2-2.01,13.89,9.38,26.43,23.24,26.71h342.29c14.59.09,27.59-12.45,24.81-27.43-1.61-8.67-13.44-12.48-19.73-17.63-45.87-37.52-21.66-121.53-33.13-173.21-15.06-67.85-79.37-117.45-149.21-113.53ZM320.8,472.83h-74.73c10.84,36.08,63.84,36.14,74.73,0Z"/>
</svg>